<?xml version="1.0" standalone="no"?>
<!DOCTYPE svg PUBLIC "-//W3C//DTD SVG 20010904//EN"
 "http://www.w3.org/TR/2001/REC-SVG-20010904/DTD/svg10.dtd">
<svg version="1.0" xmlns="http://www.w3.org/2000/svg"
 width="840.000000pt" height="630.000000pt" viewBox="0 0 840.000000 630.000000"
 preserveAspectRatio="xMidYMid meet">

<g transform="translate(0.000000,630.000000) scale(0.100000,-0.100000)"
fill="#000000" stroke="none">
<path d="M3480 3550 l0 -720 70 0 70 0 0 650 0 650 395 0 395 0 0 -110 0 -110
-270 0 -270 0 0 -155 0 -155 65 0 65 0 0 80 0 80 270 0 270 0 0 255 0 255
-530 0 -530 0 0 -720z"/>
<path d="M4790 3620 l0 -650 -395 0 -395 0 0 120 0 120 270 0 270 0 0 118 0
117 -65 70 -64 70 -1 -117 0 -118 -270 0 -270 0 0 -260 0 -260 530 0 530 0 0
720 0 720 -70 0 -70 0 0 -650z"/>
</g>
</svg>
