<?xml version="1.0" standalone="no"?>
<!DOCTYPE svg PUBLIC "-//W3C//DTD SVG 20010904//EN"
 "http://www.w3.org/TR/2001/REC-SVG-20010904/DTD/svg10.dtd">
<svg version="1.0" xmlns="http://www.w3.org/2000/svg"
 width="618.000000pt" height="404.000000pt" viewBox="0 0 618.000000 404.000000"
 preserveAspectRatio="xMidYMid meet">

<g transform="translate(0.000000,404.000000) scale(0.100000,-0.100000)"
fill="#000000" stroke="none">
<path d="M2569 2713 c-2 -10 -2 -248 1 -528 l5 -510 43 -3 42 -4 0 481 0 481
295 0 295 0 0 -80 0 -80 -200 0 -200 0 0 -115 0 -115 45 0 44 0 3 58 3 57 198
3 197 2 0 185 0 185 -384 0 c-357 0 -384 -1 -387 -17z"/>
<path d="M3521 2718 c1 -7 1 -223 0 -481 l-1 -467 -287 2 -288 3 -3 87 -3 88
198 2 198 3 2 85 3 85 -45 50 -45 49 0 -82 0 -82 -197 -2 -198 -3 0 -190 0
-190 380 0 380 0 3 528 2 527 -50 0 c-35 0 -50 -4 -49 -12z"/>
<path d="M3095 1510 c-11 -5 -14 -9 -7 -9 10 -1 13 -21 10 -86 -3 -76 -1 -85
15 -85 15 0 17 11 17 95 0 52 -3 95 -7 94 -5 0 -17 -4 -28 -9z"/>
<path d="M3575 1510 c-11 -5 -14 -9 -7 -9 6 -1 12 -12 12 -26 0 -20 -5 -25
-25 -25 -30 0 -75 -41 -75 -67 0 -43 57 -83 75 -53 3 6 17 7 31 4 l24 -6 0 96
c0 53 -3 96 -7 95 -5 0 -17 -4 -28 -9z m-7 -82 c23 -23 9 -88 -19 -88 -16 0
-39 32 -39 54 0 24 17 46 35 46 6 0 16 -5 23 -12z"/>
<path d="M2548 1503 c8 -3 12 -31 12 -89 0 -77 2 -84 20 -84 17 0 20 7 20 45
0 38 3 45 20 45 10 0 24 -8 29 -17 9 -16 10 -15 11 8 0 23 -3 25 -30 21 -29
-4 -30 -3 -30 32 0 33 2 36 29 36 16 0 32 -6 34 -12 3 -8 6 -6 6 5 1 15 -8 17
-66 16 -38 0 -62 -3 -55 -6z"/>
<path d="M2715 1444 c-6 -2 -8 -28 -7 -59 3 -43 7 -55 20 -55 14 0 16 8 14 45
-4 45 0 50 36 46 6 -1 12 5 12 14 0 18 -11 19 -29 3 -11 -10 -14 -10 -18 0 -5
12 -10 14 -28 6z"/>
<path d="M2834 1442 c-26 -17 -36 -53 -24 -83 14 -32 46 -45 82 -33 21 8 20 9
-12 14 -27 4 -36 10 -38 28 -3 19 1 22 32 22 31 0 36 3 36 24 0 31 -46 48 -76
28z m46 -22 c0 -14 -7 -20 -24 -20 -19 0 -23 4 -19 20 3 11 14 20 24 20 12 0
19 -7 19 -20z"/>
<path d="M2960 1430 c-53 -53 17 -141 80 -100 11 7 7 10 -17 10 -21 0 -36 6
-42 19 -13 24 -5 31 36 31 25 0 33 4 33 18 0 43 -55 57 -90 22z m58 -13 c3
-12 -3 -17 -22 -17 -28 0 -29 1 -20 25 8 20 38 15 42 -8z"/>
<path d="M3203 1444 c-7 -3 -13 -10 -13 -16 0 -6 7 -5 16 3 14 11 18 10 31 -6
13 -19 12 -21 -21 -34 -27 -10 -36 -19 -36 -38 0 -27 24 -41 43 -25 7 6 22 9
33 6 18 -5 19 -1 14 53 -5 53 -7 58 -30 60 -14 1 -31 -1 -37 -3z m47 -73 c0
-23 -29 -36 -44 -21 -8 8 -6 15 8 26 27 19 36 18 36 -5z"/>
<path d="M3325 1440 c-11 -5 -14 -9 -7 -9 10 -1 13 -14 10 -51 -2 -42 0 -50
15 -50 14 0 17 10 17 60 0 62 -2 64 -35 50z"/>
<path d="M3376 1441 c-3 -5 3 -11 14 -14 16 -4 20 -14 20 -51 0 -37 3 -46 18
-46 14 0 16 8 13 52 -2 29 -8 56 -15 60 -15 11 -44 10 -50 -1z"/>
</g>
</svg>
