<?xml version="1.0" standalone="no"?>
<!DOCTYPE svg PUBLIC "-//W3C//DTD SVG 20010904//EN"
 "http://www.w3.org/TR/2001/REC-SVG-20010904/DTD/svg10.dtd">
<svg version="1.0" xmlns="http://www.w3.org/2000/svg"
 width="643.000000pt" height="630.000000pt" viewBox="0 0 643.000000 630.000000"
 preserveAspectRatio="xMidYMid meet">

<g transform="translate(0.000000,630.000000) scale(0.100000,-0.100000)"
fill="#007FFF" stroke="none">
<path d="M1192 5238 c-18 -18 -17 -4151 1 -4166 8 -7 76 -10 192 -9 l180 2 2
1875 3 1875 21 17 c19 16 93 18 1122 18 606 0 1116 -4 1132 -8 l30 -8 3 -311
c2 -252 0 -312 -11 -322 -10 -8 -232 -12 -788 -13 l-774 -3 0 -440 0 -440 150
-5 c83 -3 166 -3 185 0 l35 5 5 230 5 230 778 3 777 2 0 740 0 740 -1518 0
c-1167 0 -1521 -3 -1530 -12z"/>
<path d="M4979 5238 c0 -7 0 -854 1 -1881 1 -1412 -2 -1872 -11 -1883 -10 -12
-184 -14 -1150 -14 l-1139 0 0 349 0 349 23 6 c12 3 362 6 777 6 l755 -1 2
338 3 338 -38 40 c-20 22 -62 69 -92 105 -54 64 -105 120 -187 209 l-43 46 0
-321 c0 -240 -3 -324 -12 -337 -12 -16 -73 -17 -788 -20 l-775 -2 0 -750 0
-750 1515 -2 c944 -2 1521 1 1530 7 13 8 15 252 18 2081 1 1521 -1 2076 -9
2085 -16 19 -379 20 -380 2z"/>
</g>
</svg>
